<?xml version="1.0" encoding="UTF-8"?>
<svg id="Layer_2" data-name="Layer 2" xmlns="http://www.w3.org/2000/svg" viewBox="0 0 682.31 195.1">
  <defs>
    <style>
      .cls-1 {
        fill: #1d2954;
      }
    </style>
  </defs>
  <g id="Layer_1-2" data-name="Layer 1">
    <g>
      <path class="cls-1" d="M9.68,194.52v-30.87H30.75v3.53H13.9v10.24h13.23v3.53H13.9v13.57h-4.21Z"/>
      <path class="cls-1" d="M90.59,195.1c-9.01,0-15.34-6.52-15.34-16.02s6.32-16.02,15.34-16.02,15.34,6.52,15.34,16.02-6.37,16.02-15.34,16.02Zm0-28.42c-6.66,0-10.97,4.85-10.97,12.4s4.31,12.4,10.97,12.4,10.93-4.85,10.93-12.4-4.26-12.4-10.93-12.4Z"/>
      <path class="cls-1" d="M153.17,182.71v-19.06h4.21v19.11c0,5.88,2.89,8.77,8.28,8.77s8.38-2.89,8.38-8.72v-19.16h4.17v19.06c0,9.01-5.59,12.4-12.54,12.4s-12.5-3.38-12.5-12.4Z"/>
      <path class="cls-1" d="M248.19,187.26v-23.62h3.97v30.87h-3.38l-17.93-24.8v24.8h-3.97v-30.87h4.41l16.91,23.62Z"/>
      <path class="cls-1" d="M301.27,163.65h11.17c9.7,0,15.83,5.78,15.83,15.44s-6.12,15.44-15.83,15.44h-11.17v-30.87Zm10.93,27.39c7.54,0,11.66-4.46,11.66-11.96s-4.12-11.96-11.66-11.96h-6.66v23.91h6.66Z"/>
      <path class="cls-1" d="M389.28,163.65l12.84,30.87h-4.51l-3.72-9.07h-14.06l-3.62,9.07h-4.17l12.59-30.87h4.65Zm-8.13,18.43h11.37l-5.63-13.72h-.2l-5.54,13.72Z"/>
      <path class="cls-1" d="M454.31,194.52v-27.34h-11.22v-3.53h26.85v3.53h-11.42v27.34h-4.21Z"/>
      <path class="cls-1" d="M521.35,163.65v30.87h-4.26v-30.87h4.26Z"/>
      <path class="cls-1" d="M584.37,195.1c-9.01,0-15.34-6.52-15.34-16.02s6.32-16.02,15.34-16.02,15.34,6.52,15.34,16.02-6.37,16.02-15.34,16.02Zm0-28.42c-6.66,0-10.97,4.85-10.97,12.4s4.31,12.4,10.97,12.4,10.93-4.85,10.93-12.4-4.26-12.4-10.93-12.4Z"/>
      <path class="cls-1" d="M668.66,187.26v-23.62h3.97v30.87h-3.38l-17.93-24.8v24.8h-3.97v-30.87h4.41l16.91,23.62Z"/>
    </g>
    <g>
      <g>
        <path class="cls-1" d="M23.82,85.55c1.04,20.3,15.74,29.41,33.97,29.41,16.16,0,26.51-6.42,26.51-17.4,0-9.94-7.87-13.67-21.54-16.36l-24.86-4.56C17.61,72.91,3.52,61.73,3.52,40.18,3.52,15.74,22.78,0,53.23,0c34.18,0,53.44,17.61,53.85,46.61l-23.82,.83c-.83-17.81-12.43-27.13-30.24-27.13-15.33,0-24.03,6.83-24.03,18.02,0,9.53,6.84,12.84,18.64,15.12l24.03,4.35c25.68,4.77,37.7,16.98,37.7,38.11,0,25.68-22.16,39.56-51.57,39.56C24.23,135.46,0,118.06,0,86.58l23.82-1.04Z"/>
        <path class="cls-1" d="M148.28,2.49V132.98h-25.89V2.49h25.89Z"/>
        <path class="cls-1" d="M596.77,85.55c1.03,20.3,15.74,29.41,33.97,29.41,16.16,0,26.51-6.42,26.51-17.4,0-9.94-7.87-13.67-21.54-16.36l-24.86-4.56c-20.3-3.73-34.39-14.91-34.39-36.46,0-24.44,19.26-40.18,49.71-40.18,34.18,0,53.44,17.61,53.86,46.61l-23.82,.83c-.83-17.81-12.43-27.13-30.24-27.13-15.32,0-24.02,6.83-24.02,18.02,0,9.53,6.83,12.84,18.64,15.12l24.03,4.35c25.68,4.77,37.7,16.98,37.7,38.11,0,25.68-22.16,39.56-51.57,39.56-33.56,0-57.79-17.4-57.79-48.88l23.82-1.04Z"/>
      </g>
      <g>
        <path class="cls-1" d="M326.31,132.98c-19.64-14.99-32.32-38.63-32.32-65.25s12.68-50.26,32.32-65.25h-63.09l-27.14,94.87h-.62L206.88,2.49h-40.8V132.98h24.03V30.24h.83l31.9,102.74h22.16l31.28-102.74h.83v102.74h49.22Z"/>
        <path class="cls-1" d="M538.38,2.49V89.48L476.65,2.49h-50.9c19.64,14.99,32.32,38.63,32.32,65.25s-12.68,50.26-32.32,65.25h49.25V41.01l66.7,91.97h20.71V2.49h-24.03Z"/>
      </g>
    </g>
  </g>
</svg>